<?xml version="1.0" encoding="utf-8"?>
<!-- Generator: Adobe Illustrator 26.3.1, SVG Export Plug-In . SVG Version: 6.00 Build 0)  -->
<svg version="1.1" id="Layer_1" xmlns="http://www.w3.org/2000/svg" xmlns:xlink="http://www.w3.org/1999/xlink" x="0px" y="0px"
	 viewBox="0 0 1017.2 325" style="enable-background:new 0 0 1017.2 325;" xml:space="preserve">
<style type="text/css">
	.st0{fill:#FFFFFF;}
	.st1{enable-background:new    ;}
</style>
<g>
	<rect x="4" y="4" class="st0" width="500.6" height="224.7"/>
	<path d="M500.6,8v216.7H8V8H500.6 M508.6,0H0v232.7h508.6V0L508.6,0z"/>
</g>
<rect x="508.6" width="508.6" height="232.7"/>
<g class="st1">
	<path d="M131.8,143.3v15H89.3c-4.2,0-8.1-1-11.7-2.8c-5.3-2.6-9.6-6.9-12.1-12.2c-1.8-3.6-2.8-7.5-2.8-11.7V74.5h15V133
		c0.7,5.3,4.9,9.5,10.2,10.2L131.8,143.3z"/>
	<path d="M143.7,158.2V74.4h15v83.8H143.7z"/>
	<path d="M185.6,116.3c0,14.8,12.1,26.9,26.9,26.9h26.9v-16h-26.9v-15h41.9v46h-41.9c-23.1,0-41.9-18.8-41.9-41.9
		c0-23.1,18.8-41.9,41.9-41.9h41.9v15h-41.9C197.7,89.4,185.6,101.5,185.6,116.3z"/>
	<path d="M350.2,74.4v83.8h-15v-38.4h-53.9v38.4h-15V74.4h15v30.4h53.9V74.4H350.2z"/>
	<path d="M445.8,74.5v15h-34.3v68.8h-15V89.5h-34.3v-15H445.8z"/>
</g>
<g class="st1">
	<path class="st0" d="M632.5,74.5c23.1,0,41.9,18.7,41.9,41.8c0,10.3-3.7,19.7-9.9,27c-0.7,0.8-1.6,1.7-2.4,2.5
		c-7.5,7.7-18,12.3-29.4,12.3h-41.9V74.4L632.5,74.5z M605.6,143.3h26.9c14.8,0,26.9-12.1,26.9-26.9s-12.1-26.9-26.9-26.9h-26.9
		V143.3z"/>
</g>
<g class="st1">
	<path class="st0" d="M756.8,158.2H740l-7.7-15L714,107.3l-18.3,35.9l-7.7,15h-16.8l7.7-15L714,74.4l35.1,68.8L756.8,158.2z"/>
	<path class="st0" d="M831.6,143.3l7.7,15h-16.8l-7.7-15l-8-15.7l-0.4-0.7c-2.6-4.3-7.3-7.2-12.7-7.2h-15v38.5h-15V74.5h52.9
		c6.2,0,11.8,2.5,15.9,6.6c4.1,4.2,6.6,9.8,6.6,16c0,9.1-5.4,17-13.2,20.6c-2,1-4.2,1.6-6.5,1.8L831.6,143.3z M816.7,104.8
		c1.1,0,2.2-0.2,3.1-0.7c2.8-1.2,4.5-3.9,4.5-6.9c0-2.8-1.4-4.7-2.3-5.5c-1-1-2.8-2.2-5.4-2.2h-37.9v15.4L816.7,104.8z"/>
	<path class="st0" d="M898.5,108l36.3,50.1h-18.4l-29-40l-21.2,19.3v20.7h-15V74.4h15v42.8l12.3-11.2l11.1-10.2l23.3-21.4h22.1
		L898.5,108z"/>
</g>
<g class="st1">
	<path d="M265.1,293.1c0,7.4,6,13.5,13.5,13.5h13.5v-8h-13.5v-7.5h20.9v23h-20.9c-11.6,0-20.9-9.4-20.9-20.9
		c0-11.6,9.4-20.9,20.9-20.9h20.9v7.5h-20.9C271.2,279.6,265.1,285.7,265.1,293.1z"/>
	<path d="M345.9,314h-8.4l-3.8-7.5l-9.2-18l-9.2,18l-3.8,7.5h-8.4l3.8-7.5l17.5-34.4l17.5,34.4L345.9,314z"/>
	<path d="M391.4,272.2V314h-7.5v-26.7l-7.4,5.6l-6.1,4.7l-6.1-4.7l-7.4-5.6V314h-7.5v-41.9l7.5,5.7l13.5,10.4l13.5-10.4L391.4,272.2
		z"/>
	<path d="M404.9,283.5v3.9h26.9v7.5h-26.9v7.9c0,2.1,1.7,3.8,3.8,3.8h30.6v7.5h-30.6c-6.2,0-11.3-5.1-11.3-11.3v-19.3
		c0-6.2,5-11.3,11.3-11.3h30.6v7.5h-30.6C406.6,279.6,404.9,281.4,404.9,283.5z"/>
	<path d="M477.4,283.8v-0.2c0-2.1-1.7-3.8-3.8-3.8h-17c-2.1,0-3.8,1.7-3.8,3.8v0.2c0,2.1,1.7,3.8,3.8,3.8h15.1
		c3.9,0,7.4,1.7,9.8,4.3c0.2,0.2,0.3,0.4,0.5,0.5c1.9,2.3,3,5.2,3,8.4c0,7.3-5.9,13.2-13.2,13.2h-13.1c-7.3,0-13.2-5.9-13.2-13.2
		h7.5c0,3.2,2.6,5.7,5.7,5.7h13.1c3.2,0,5.8-2.6,5.8-5.7s-2.6-5.7-5.8-5.7h-15.1c-3.1,0-5.8-1.2-7.8-3.2c-0.5-0.5-1-1.1-1.4-1.8
		c-1.3-1.8-2-4-2-6.4v-0.2c0-6.2,5-11.3,11.3-11.3h17c6.2,0,11.3,5.1,11.3,11.3v0.2L477.4,283.8z"/>
</g>
<g class="st1">
	<path d="M552.1,283.8v-0.2c0-2.1-1.7-3.8-3.8-3.8h-17c-2.1,0-3.8,1.7-3.8,3.8v0.2c0,2.1,1.7,3.8,3.8,3.8h15.1
		c3.9,0,7.4,1.7,9.8,4.3c0.2,0.2,0.3,0.4,0.5,0.5c1.9,2.3,3,5.2,3,8.4c0,7.3-5.9,13.2-13.2,13.2h-13.1c-7.3,0-13.2-5.9-13.2-13.2
		h7.5c0,3.2,2.6,5.7,5.7,5.7h13.1c3.2,0,5.8-2.6,5.8-5.7s-2.6-5.7-5.8-5.7h-15.1c-3.1,0-5.8-1.2-7.8-3.2c-0.5-0.5-1-1.1-1.4-1.8
		c-1.3-1.8-2-4-2-6.4v-0.2c0-6.2,5-11.3,11.3-11.3h17c6.2,0,11.3,5.1,11.3,11.3v0.2L552.1,283.8z"/>
</g>
<g class="st1">
	<path d="M605.4,272.2v7.5h-17.2v34.4h-7.5v-34.4h-17.2v-7.5H605.4z"/>
	<path d="M653.4,272.2v20.9c0,11.5-9.4,20.9-20.9,20.9c-11.5,0-20.9-9.4-20.9-20.9v-20.9h7.5v20.9c0,7.4,6,13.5,13.5,13.5
		s13.5-6,13.5-13.5v-20.9H653.4z"/>
	<path d="M680.2,272.2c11.6,0,20.9,9.3,20.9,20.9c0,5.1-1.9,9.9-5,13.5c-0.4,0.4-0.8,0.8-1.2,1.3c-3.8,3.8-9,6.2-14.7,6.2h-20.9
		v-41.9L680.2,272.2z M666.8,306.6h13.5c7.4,0,13.5-6,13.5-13.5s-6-13.5-13.5-13.5h-13.5V306.6z"/>
	<path d="M707.2,314v-41.9h7.5V314H707.2z"/>
	<path d="M761.1,293.1c0,11.5-9.4,20.9-20.9,20.9c-11.5,0-20.9-9.4-20.9-20.9c0-11.6,9.4-20.9,20.9-20.9
		C751.7,272.2,761.1,281.6,761.1,293.1z M753.6,293.1c0-7.4-6-13.5-13.5-13.5s-13.5,6-13.5,13.5c0,7.4,6,13.5,13.5,13.5
		S753.6,300.5,753.6,293.1z"/>
</g>
</svg>
