<?xml version="1.0" encoding="UTF-8"?><svg id="Layer_2" xmlns="http://www.w3.org/2000/svg" viewBox="0 0 230.4 257.28"><defs><style>.cls-1{fill:#fff;}</style></defs><g id="Layer_1-2"><g><g><g><rect class="cls-1" x="4" y="4" width="109.5" height="164.8"/><path d="M109.5,8V164.8H8V8H109.5M117.5,0H0V172.8H117.5V0h0Z"/></g><rect x="117.5" y="0" width="112.9" height="172.8"/><path d="M99.75,107.94v11.97h-33.99c-3.35,0-6.51-.77-9.38-2.2-4.21-2.11-7.66-5.55-9.67-9.77-1.44-2.87-2.2-6.03-2.2-9.38V52.89h11.97v46.82c.57,4.21,3.93,7.56,8.14,8.14l35.14,.1Z"/><path class="cls-1" d="M156.98,52.99c18.48,0,33.51,14.94,33.51,33.41,0,8.23-2.97,15.8-7.95,21.64-.57,.67-1.24,1.34-1.91,2.01-6.03,6.13-14.36,9.86-23.55,9.86h-33.51V52.89l33.41,.1Zm-21.54,55.05h21.54c11.87,0,21.54-9.67,21.54-21.54s-9.67-21.54-21.54-21.54h-21.54v43.08Z"/></g><g><path d="M51.19,208.29c0,4.48,3.65,8.12,8.12,8.12h8.12v-4.84h-8.12v-4.51h12.63v13.86h-12.63c-6.97,0-12.63-5.67-12.63-12.63s5.67-12.63,12.63-12.63h12.63v4.51h-12.63c-4.47,0-8.12,3.65-8.12,8.12Z"/><path d="M99.91,220.92h-5.05l-2.31-4.51-5.52-10.83-5.52,10.83-2.31,4.51h-5.05l2.31-4.51,10.57-20.75,10.57,20.75,2.31,4.51Z"/><path d="M127.34,195.66v25.26h-4.51v-16.1l-4.44,3.39-3.68,2.85-3.68-2.85-4.44-3.39v16.1h-4.51v-25.26l4.51,3.46,8.12,6.24,8.12-6.24,4.51-3.46Z"/><path d="M135.47,202.48v2.35h16.24v4.51h-16.24v4.76c0,1.26,1.05,2.31,2.31,2.31h18.44v4.51h-18.44c-3.75,0-6.78-3.07-6.78-6.82v-11.62c0-3.75,3.03-6.82,6.78-6.82h18.44v4.51h-18.44c-1.26,0-2.31,1.05-2.31,2.31Z"/><path d="M179.21,202.66v-.14c0-1.26-1.05-2.31-2.31-2.31h-10.25c-1.26,0-2.31,1.05-2.31,2.31v.14c0,1.26,1.05,2.31,2.31,2.31h9.09c2.35,0,4.44,1.01,5.88,2.6,.11,.11,.18,.22,.29,.32,1.12,1.37,1.8,3.14,1.8,5.05,0,4.4-3.57,7.98-7.98,7.98h-7.9c-4.4,0-7.98-3.57-7.98-7.98h4.51c0,1.91,1.55,3.46,3.46,3.46h7.9c1.91,0,3.5-1.55,3.5-3.46s-1.59-3.46-3.5-3.46h-9.09c-1.84,0-3.5-.72-4.73-1.91-.32-.33-.61-.69-.87-1.08-.76-1.08-1.19-2.42-1.19-3.86v-.14c0-3.75,3.03-6.82,6.78-6.82h10.25c3.75,0,6.82,3.07,6.82,6.82v.14l-4.51,.04Z"/></g><g><path d="M61.85,238.99v-.14c0-1.26-1.05-2.31-2.31-2.31h-10.25c-1.26,0-2.31,1.05-2.31,2.31v.14c0,1.26,1.05,2.31,2.31,2.31h9.09c2.35,0,4.44,1.01,5.88,2.6,.11,.11,.18,.22,.29,.32,1.12,1.37,1.8,3.14,1.8,5.05,0,4.4-3.57,7.98-7.98,7.98h-7.9c-4.4,0-7.98-3.57-7.98-7.98h4.51c0,1.91,1.55,3.46,3.46,3.46h7.9c1.91,0,3.5-1.55,3.5-3.46s-1.59-3.46-3.5-3.46h-9.09c-1.84,0-3.5-.72-4.73-1.91-.33-.33-.61-.69-.87-1.08-.76-1.08-1.19-2.42-1.19-3.86v-.14c0-3.75,3.03-6.82,6.78-6.82h10.25c3.75,0,6.82,3.07,6.82,6.82v.14l-4.51,.04Z"/><path d="M94.01,232.02v4.51h-10.36v20.75h-4.51v-20.75h-10.36v-4.51h25.23Z"/><path d="M122.92,231.99v12.63c0,6.97-5.67,12.63-12.63,12.63s-12.63-5.67-12.63-12.63v-12.63h4.51v12.63c0,4.48,3.65,8.12,8.12,8.12s8.12-3.65,8.12-8.12v-12.63h4.51Z"/><path d="M139.13,232.02c6.97,0,12.63,5.63,12.63,12.6,0,3.1-1.12,5.95-3,8.16-.22,.25-.47,.51-.72,.76-2.27,2.31-5.41,3.72-8.88,3.72h-12.63v-25.26l12.6,.04Zm-8.12,20.75h8.12c4.48,0,8.12-3.65,8.12-8.12s-3.65-8.12-8.12-8.12h-8.12v16.24Z"/><path d="M155.41,257.25v-25.26h4.51v25.26h-4.51Z"/><path d="M187.89,244.62c0,6.97-5.67,12.63-12.63,12.63s-12.63-5.67-12.63-12.63,5.67-12.63,12.63-12.63,12.63,5.67,12.63,12.63Zm-4.51,0c0-4.48-3.64-8.12-8.12-8.12s-8.12,3.65-8.12,8.12,3.65,8.12,8.12,8.12,8.12-3.65,8.12-8.12Z"/></g></g></g></svg>