<?xml version="1.0" encoding="UTF-8"?><svg id="Layer_2" xmlns="http://www.w3.org/2000/svg" viewBox="0 0 296.28 220.5"><defs><style>.cls-1{fill:#fff;}</style></defs><g id="Layer_1-2"><g><g><g><rect class="cls-1" x="36.94" y="4" width="109.5" height="164.8"/><path d="M142.44,8V164.8H40.94V8h101.5M150.44,0H32.94V172.8h117.5V0h0Z"/></g><rect x="150.44" y="0" width="112.9" height="172.8"/><path d="M132.69,107.94v11.97h-33.99c-3.35,0-6.51-.77-9.38-2.2-4.21-2.11-7.66-5.55-9.67-9.77-1.44-2.87-2.2-6.03-2.2-9.38V52.89h11.97v46.82c.57,4.21,3.93,7.56,8.14,8.14l35.14,.1Z"/><path class="cls-1" d="M189.92,52.99c18.48,0,33.51,14.94,33.51,33.41,0,8.23-2.97,15.8-7.95,21.64-.57,.67-1.24,1.34-1.91,2.01-6.03,6.13-14.36,9.86-23.55,9.86h-33.51V52.89l33.41,.1Zm-21.54,55.05h21.54c11.87,0,21.54-9.67,21.54-21.54s-9.67-21.54-21.54-21.54h-21.54v43.08Z"/></g><g><path d="M4.4,208.14c0,4.37,3.56,7.92,7.92,7.92h7.92v-4.72h-7.92v-4.4h12.32v13.52H12.32c-6.8,0-12.32-5.53-12.32-12.32s5.53-12.32,12.32-12.32h12.32v4.4H12.32c-4.37,0-7.92,3.56-7.92,7.92Z"/><path d="M51.94,220.47h-4.93l-2.25-4.4-5.39-10.56-5.39,10.56-2.25,4.4h-4.93l2.25-4.4,10.32-20.25,10.32,20.25,2.25,4.4Z"/><path d="M78.71,195.82v24.65h-4.4v-15.7l-4.33,3.31-3.59,2.78-3.59-2.78-4.33-3.31v15.7h-4.4v-24.65l4.4,3.38,7.92,6.09,7.92-6.09,4.4-3.38Z"/><path d="M86.63,202.48v2.29h15.85v4.4h-15.85v4.65c0,1.23,1.02,2.25,2.25,2.25h17.99v4.4h-17.99c-3.66,0-6.62-2.99-6.62-6.66v-11.34c0-3.66,2.96-6.66,6.62-6.66h17.99v4.4h-17.99c-1.23,0-2.25,1.02-2.25,2.25Z"/><path d="M129.32,202.65v-.14c0-1.23-1.02-2.25-2.25-2.25h-10c-1.23,0-2.25,1.02-2.25,2.25v.14c0,1.23,1.02,2.25,2.25,2.25h8.87c2.29,0,4.33,.99,5.74,2.54,.11,.11,.18,.21,.28,.32,1.09,1.34,1.76,3.06,1.76,4.93,0,4.3-3.49,7.78-7.78,7.78h-7.71c-4.3,0-7.78-3.49-7.78-7.78h4.4c0,1.87,1.51,3.38,3.38,3.38h7.71c1.87,0,3.42-1.51,3.42-3.38s-1.55-3.38-3.42-3.38h-8.87c-1.8,0-3.42-.7-4.61-1.87-.32-.32-.6-.67-.84-1.06-.74-1.06-1.16-2.36-1.16-3.77v-.14c0-3.66,2.96-6.66,6.62-6.66h10c3.66,0,6.66,2.99,6.66,6.66v.14l-4.4,.04Z"/><path d="M173.3,202.65v-.14c0-1.23-1.02-2.25-2.25-2.25h-10c-1.23,0-2.25,1.02-2.25,2.25v.14c0,1.23,1.02,2.25,2.25,2.25h8.87c2.29,0,4.33,.99,5.74,2.54,.11,.11,.18,.21,.28,.32,1.09,1.34,1.76,3.06,1.76,4.93,0,4.3-3.49,7.78-7.78,7.78h-7.71c-4.3,0-7.78-3.49-7.78-7.78h4.4c0,1.87,1.51,3.38,3.38,3.38h7.71c1.87,0,3.42-1.51,3.42-3.38s-1.55-3.38-3.42-3.38h-8.87c-1.8,0-3.42-.7-4.61-1.87-.32-.32-.6-.67-.85-1.06-.74-1.06-1.16-2.36-1.16-3.77v-.14c0-3.66,2.96-6.66,6.62-6.66h10c3.66,0,6.66,2.99,6.66,6.66v.14l-4.4,.04Z"/><path d="M204.68,195.86v4.4h-10.11v20.25h-4.4v-20.25h-10.11v-4.4h24.61Z"/><path d="M232.89,195.82v12.32c0,6.8-5.53,12.32-12.32,12.32s-12.32-5.53-12.32-12.32v-12.32h4.4v12.32c0,4.37,3.56,7.92,7.92,7.92s7.92-3.56,7.92-7.92v-12.32h4.4Z"/><path d="M248.7,195.86c6.8,0,12.32,5.49,12.32,12.29,0,3.03-1.09,5.81-2.92,7.96-.21,.25-.46,.49-.7,.74-2.22,2.25-5.28,3.63-8.66,3.63h-12.32v-24.65l12.29,.04Zm-7.92,20.25h7.92c4.37,0,7.92-3.56,7.92-7.92s-3.56-7.92-7.92-7.92h-7.92v15.85Z"/><path d="M264.59,220.47v-24.65h4.4v24.65h-4.4Z"/><path d="M296.28,208.14c0,6.8-5.53,12.32-12.32,12.32s-12.32-5.53-12.32-12.32,5.53-12.32,12.32-12.32,12.32,5.53,12.32,12.32Zm-4.4,0c0-4.37-3.56-7.92-7.92-7.92s-7.92,3.56-7.92,7.92,3.56,7.92,7.92,7.92,7.92-3.56,7.92-7.92Z"/></g></g></g></svg>