<?xml version="1.0" encoding="UTF-8"?><svg id="Layer_2" xmlns="http://www.w3.org/2000/svg" viewBox="0 0 230.4 229.91"><defs><style>.cls-1{fill:#fff;}</style></defs><g id="Layer_1-2"><g><g><g><rect class="cls-1" x="4" y="4" width="109.5" height="164.8"/><path d="M109.5,8V164.8H8V8H109.5M117.5,0H0V172.8H117.5V0h0Z"/></g><rect x="117.5" y="0" width="112.9" height="172.8"/><path d="M99.75,107.94v11.97h-33.99c-3.35,0-6.51-.77-9.38-2.2-4.21-2.11-7.66-5.55-9.67-9.77-1.44-2.87-2.2-6.03-2.2-9.38V52.89h11.97v46.82c.57,4.21,3.93,7.56,8.14,8.14l35.14,.1Z"/><path class="cls-1" d="M156.98,52.99c18.48,0,33.51,14.94,33.51,33.41,0,8.23-2.97,15.8-7.95,21.64-.57,.67-1.24,1.34-1.91,2.01-6.03,6.13-14.36,9.86-23.55,9.86h-33.51V52.89l33.41,.1Zm-21.54,55.05h21.54c11.87,0,21.54-9.67,21.54-21.54s-9.67-21.54-21.54-21.54h-21.54v43.08Z"/></g><g><path d="M30.31,213.16c0,5.94,4.83,10.77,10.77,10.77h10.77v-6.41h-10.77v-5.98h16.75v18.38h-16.75c-9.24,0-16.75-7.51-16.75-16.75s7.51-16.75,16.75-16.75h16.75v5.98h-16.75c-5.93,0-10.77,4.83-10.77,10.77Z"/><path d="M94.93,229.91h-6.7l-3.06-5.98-7.32-14.36-7.32,14.36-3.06,5.98h-6.7l3.06-5.98,14.02-27.52,14.02,27.52,3.06,5.98Z"/><path d="M131.31,196.41v33.5h-5.98v-21.35l-5.89,4.5-4.88,3.78-4.88-3.78-5.89-4.5v21.35h-5.98v-33.5l5.98,4.6,10.77,8.28,10.77-8.28,5.98-4.6Z"/><path d="M142.08,205.45v3.11h21.54v5.98h-21.54v6.32c0,1.68,1.39,3.06,3.06,3.06h24.46v5.98h-24.46c-4.98,0-9-4.07-9-9.05v-15.41c0-4.98,4.02-9.05,9-9.05h24.46v5.98h-24.46c-1.68,0-3.06,1.39-3.06,3.06Z"/><path d="M200.09,205.69v-.19c0-1.68-1.39-3.06-3.06-3.06h-13.59c-1.68,0-3.06,1.39-3.06,3.06v.19c0,1.68,1.39,3.06,3.06,3.06h12.06c3.11,0,5.89,1.34,7.8,3.45,.14,.14,.24,.29,.38,.43,1.48,1.82,2.39,4.16,2.39,6.7,0,5.84-4.74,10.58-10.58,10.58h-10.48c-5.84,0-10.58-4.74-10.58-10.58h5.98c0,2.54,2.06,4.6,4.59,4.6h10.48c2.54,0,4.64-2.06,4.64-4.6s-2.11-4.59-4.64-4.59h-12.06c-2.44,0-4.64-.96-6.27-2.54-.43-.43-.81-.91-1.15-1.44-1.01-1.44-1.58-3.21-1.58-5.12v-.19c0-4.98,4.02-9.05,9-9.05h13.59c4.98,0,9.05,4.07,9.05,9.05v.19l-5.98,.05Z"/></g></g></g></svg>