<?xml version="1.0" encoding="UTF-8"?><svg id="Layer_2" xmlns="http://www.w3.org/2000/svg" viewBox="0 0 230.4 172.8"><defs><style>.cls-1{fill:#fff;}</style></defs><g id="Layer_1-2"><g><g><rect class="cls-1" x="4" y="4" width="109.5" height="164.8"/><path d="M109.5,8V164.8H8V8H109.5M117.5,0H0V172.8H117.5V0h0Z"/></g><rect x="117.5" y="0" width="112.9" height="172.8"/><path d="M99.75,107.94v11.97h-33.99c-3.35,0-6.51-.77-9.38-2.2-4.21-2.11-7.66-5.55-9.67-9.77-1.44-2.87-2.2-6.03-2.2-9.38V52.89h11.97v46.82c.57,4.21,3.93,7.56,8.14,8.14l35.14,.1Z"/><path class="cls-1" d="M156.98,52.99c18.48,0,33.51,14.94,33.51,33.41,0,8.23-2.97,15.8-7.95,21.64-.57,.67-1.24,1.34-1.91,2.01-6.03,6.13-14.36,9.86-23.55,9.86h-33.51V52.89l33.41,.1Zm-21.54,55.05h21.54c11.87,0,21.54-9.67,21.54-21.54s-9.67-21.54-21.54-21.54h-21.54v43.08Z"/></g></g></svg>